<?xml version="1.0" standalone="no"?>
<!DOCTYPE svg PUBLIC "-//W3C//DTD SVG 20010904//EN"
 "http://www.w3.org/TR/2001/REC-SVG-20010904/DTD/svg10.dtd">
<svg version="1.0" xmlns="http://www.w3.org/2000/svg"
 width="500.000000pt" height="500.000000pt" viewBox="0 0 500.000000 500.000000"
 preserveAspectRatio="xMidYMid meet">
<metadata>
Created by potrace 1.14, written by Peter Selinger 2001-2017
</metadata>
<g transform="translate(0.000000,500.000000) scale(0.100000,-0.100000)"
fill="#000000" stroke="none">
<path d="M2491 4558 c-55 -106 -86 -159 -103 -178 -8 -8 -27 -36 -44 -62 -16
-27 -32 -48 -36 -48 -5 0 -8 -5 -8 -11 0 -6 -6 -16 -12 -23 -7 -7 -22 -25 -33
-40 -33 -45 -198 -261 -204 -266 -3 -3 -17 -21 -30 -40 -14 -19 -30 -39 -38
-43 -7 -4 -13 -13 -13 -19 0 -5 -11 -24 -25 -42 -14 -17 -34 -41 -43 -54 -9
-12 -21 -28 -27 -35 -5 -7 -26 -35 -45 -62 -19 -28 -38 -54 -43 -60 -4 -5 -16
-22 -25 -36 -9 -15 -29 -44 -43 -65 -14 -22 -26 -43 -27 -48 0 -5 -4 -12 -9
-15 -5 -3 -38 -51 -73 -106 -34 -55 -71 -112 -81 -127 -11 -15 -19 -29 -19
-32 0 -3 -14 -29 -31 -58 -61 -102 -177 -344 -195 -403 -2 -5 -15 -41 -30 -80
-26 -70 -51 -148 -60 -195 -3 -14 -10 -43 -16 -65 -6 -22 -12 -51 -13 -65 -2
-14 -7 -45 -11 -70 -9 -54 -10 -373 -2 -415 3 -16 9 -50 13 -75 14 -83 61
-247 77 -267 6 -7 8 -13 4 -13 -9 0 93 -196 115 -219 11 -12 17 -21 14 -21 -7
0 74 -108 120 -159 26 -29 60 -63 156 -153 25 -23 175 -128 184 -128 4 0 18
-9 32 -20 14 -11 29 -17 34 -14 5 3 9 1 9 -5 0 -5 10 -13 23 -16 23 -8 62 -23
112 -46 17 -7 35 -13 40 -14 6 0 17 -5 25 -10 8 -5 21 -10 30 -10 8 -1 44 -9
80 -18 81 -21 125 -28 220 -36 91 -7 288 5 365 24 11 2 47 11 80 18 33 7 70
19 83 26 12 6 22 9 22 6 0 -3 13 1 30 10 16 8 31 15 32 14 13 -7 253 125 312
172 72 56 217 197 252 245 11 14 29 38 41 52 13 15 23 33 23 40 0 6 4 12 9 12
8 0 81 112 81 126 0 4 7 15 16 25 8 9 17 23 18 31 1 7 10 31 20 53 23 51 66
175 61 175 -2 0 1 15 6 32 17 56 26 110 35 203 8 86 11 265 4 265 -3 0 -6 19
-6 43 -2 60 -14 147 -24 182 -5 17 -11 41 -12 55 -2 14 -6 30 -10 35 -3 6 -9
26 -14 45 -11 50 -11 50 -14 53 -1 1 -3 9 -5 17 -3 15 -60 173 -72 200 -3 8
-7 17 -8 20 -1 3 -9 22 -18 44 -9 21 -17 42 -17 47 0 5 -4 9 -10 9 -5 0 -10 6
-10 13 0 20 -142 293 -180 347 -11 15 -20 33 -20 39 0 6 -4 11 -10 11 -5 0
-10 4 -10 9 0 9 -76 129 -105 166 -8 10 -15 25 -15 31 0 7 -4 14 -8 16 -5 2
-23 26 -42 53 -19 28 -38 55 -42 60 -5 6 -17 21 -28 34 -11 13 -20 28 -20 33
0 5 -6 15 -12 22 -7 7 -21 24 -31 37 -106 145 -150 205 -156 209 -3 3 -20 25
-36 50 -17 25 -34 50 -40 57 -5 6 -21 26 -35 44 -14 19 -44 57 -67 86 -24 29
-43 56 -43 59 0 4 -11 17 -24 29 -14 13 -22 26 -19 29 4 3 1 6 -5 6 -7 0 -12
4 -12 9 0 5 -27 50 -60 100 -33 50 -60 95 -60 101 0 5 -4 10 -10 10 -5 0 -10
6 -10 13 0 26 -54 117 -69 117 -4 0 -26 -37 -50 -82z"/>
</g>
</svg>
